<svg xmlns="http://www.w3.org/2000/svg" version="1.1" xmlns:xlink="http://www.w3.org/1999/xlink" xmlns:svgjs="http://svgjs.dev/svgjs" width="1000" height="1000" viewBox="0 0 1000 1000"><rect width="1000" height="1000" fill="#000000"></rect><g transform="matrix(0.7,0,0,0.7,149.57575757575756,369.6657303514336)"><svg viewBox="0 0 396 148" data-background-color="#6936f5" preserveAspectRatio="xMidYMid meet" height="373" width="1000" xmlns="http://www.w3.org/2000/svg" xmlns:xlink="http://www.w3.org/1999/xlink"><g id="tight-bounds" transform="matrix(1,0,0,1,0.2400000000000091,-0.1222830027275279)"><svg viewBox="0 0 395.52 148.24402849448524" height="148.24402849448524" width="395.52"><g><svg viewBox="0 0 395.52 148.24402849448524" height="148.24402849448524" width="395.52"><g transform="matrix(1,0,0,1,0,76.60442693638765)"><svg viewBox="0 0 395.52 71.63960155809757" height="71.63960155809757" width="395.52"><g id="textblocktransform"><svg viewBox="0 0 395.52 71.63960155809757" height="71.63960155809757" width="395.52" id="textblock"><g><svg viewBox="0 0 395.52 71.63960155809757" height="71.63960155809757" width="395.52"><g transform="matrix(1,0,0,1,0,0)"><svg width="395.52" viewBox="-1.5991414785385132 -17.632577896118164 248.3289794921875 44.97924041748047" height="71.63960155809757" data-palette-color="#ffffff"><path d="M12.95 14.295c3.684 0.815 7.039 0.836 10.063 0.064 3.023-0.765 5.526-2.206 7.51-4.321 1.983-2.115 3.319-4.728 4.007-7.84v0c0.596-2.695 0.536-5.221-0.179-7.577-0.708-2.355-2.245-4.439-4.609-6.253-2.371-1.815-5.652-3.185-9.844-4.112v0c-2.395-0.53-4.985-0.969-7.769-1.318-2.785-0.343-5.02-0.533-6.705-0.571v0l-0.995 3.713 3.896 2.019-4.03 18.23-4.746 1.04-1.148 3.709zM17.462-11.213c0.081 0.004 0.226 0.029 0.434 0.076v0c2.187 0.484 3.885 1.45 5.095 2.898 1.211 1.442 1.968 3.081 2.272 4.916 0.312 1.831 0.279 3.602-0.1 5.314v0c-0.543 2.454-1.593 4.519-3.151 6.196-1.56 1.683-3.984 2.161-7.271 1.434v0l-1.797-0.397zM33.477 18.679l14.427 2.109 0.891-3.538-4.256-2.896 1.298-2.59 9.499 1.389 0.523 2.855-4.386 1.936-0.885 3.287 17.345 2.536 0.808-3.52-3.014-2.745-5.802-26.407-8.64 0.343-12.827 21.996-4.027 1.968zM48.27 6.945l4.326-8.574 1.759 9.464zM72.741-2.594l4.179 2.369-1.396 19.209-4.32 1.631-0.494 3.353 14.202 1.033 0.583-3.598-4.287-1.855 0.725-9.974 11.136 16.731 7.24-0.556 1.797-24.735 3.5-1.39 0.875-3.616-13.375-0.972-0.844 3.618 4.456 2.139-0.901 12.397-12.435-18.861-10.024-0.729zM107.026-0.355l4.578 1.888-0.33 19.577-4.342 1.867-0.308 3.475 17.567 0.296 0.386-3.914-4.383-1.614 0.328-19.457 4.417-1.566 0.456-3.913-17.818-0.3zM137.67 26.976c1.679-0.047 3.469-0.424 5.37-1.131 1.901-0.707 3.52-1.84 4.856-3.398 1.337-1.552 1.971-3.537 1.904-5.956v0c-0.049-1.733-0.584-3.218-1.606-4.456-1.022-1.238-2.224-2.242-3.606-3.01-1.375-0.768-3.13-1.613-5.263-2.533v0c-1.371-0.602-2.432-1.089-3.183-1.461-0.744-0.373-1.363-0.792-1.856-1.259-0.5-0.466-0.758-0.969-0.773-1.509v0c-0.025-0.88 0.242-1.581 0.802-2.103 0.559-0.523 1.368-0.799 2.427-0.828v0c0.913-0.026 1.842 0.148 2.786 0.521 0.944 0.374 1.639 0.881 2.084 1.522v0l1.061 3.962 4.26 0.621c0.042-0.868 0.126-2.505 0.252-4.909 0.132-2.411 0.195-3.737 0.188-3.977v0c-0.423-0.335-1.168-0.637-2.236-0.908-1.068-0.27-2.231-0.477-3.489-0.622-1.251-0.145-2.333-0.204-3.247-0.179v0c-2.239 0.063-4.253 0.53-6.043 1.401-1.789 0.877-3.186 2.09-4.189 3.639-1.004 1.549-1.477 3.32-1.421 5.312v0c0.05 1.779 0.559 3.279 1.527 4.499 0.968 1.227 2.099 2.202 3.393 2.926 1.294 0.724 2.95 1.498 4.968 2.321v0c1.302 0.537 2.315 0.989 3.039 1.355 0.724 0.36 1.329 0.773 1.815 1.239 0.487 0.473 0.738 1.003 0.755 1.59v0c0.013 0.473-0.157 0.931-0.511 1.375-0.354 0.443-0.834 0.807-1.44 1.091-0.605 0.29-1.261 0.446-1.968 0.465v0c-1.04 0.029-2.05-0.086-3.031-0.345-0.981-0.259-1.709-0.636-2.182-1.129v0l-1.159-4.549-4.348-0.588-0.583 9.13c0.671 0.621 1.962 1.109 3.872 1.462 1.904 0.353 4.162 0.493 6.775 0.419zM149.991-0.814l4.708 1.38 1.821 19.596-3.943 2.315 0.024 3.392 16.758-1.557 0.102-3.655-3.826-1.191-0.64-6.881 10.177-0.945 0.625 6.731-3.166 2.242-0.026 3.397 16.907-1.571 0.013-3.647-4.514-1.127-1.85-19.914 3.95-2.014 0.119-3.697-17.027 1.582-0.078 3.693 3.851 1.46 0.627 6.741-10.177 0.946-0.642-6.911 3.194-1.943 0.119-3.697-16.828 1.563zM198.058 21.862c1.907-0.278 3.219-0.819 3.937-1.624 0.711-0.811 0.982-1.79 0.815-2.938v0c-0.086-0.594-0.331-1.138-0.732-1.632-0.402-0.494-1.02-0.872-1.853-1.135-0.839-0.255-1.915-0.287-3.228-0.096v0c-1.227 0.179-2.193 0.511-2.896 0.998-0.703 0.493-1.172 1.043-1.407 1.65-0.236 0.6-0.31 1.201-0.223 1.801v0c0.36 2.474 2.223 3.466 5.587 2.976zM210.151 27.347c2.694-2.366 4.669-4.442 5.923-6.228 1.247-1.791 2.001-3.758 2.263-5.899 0.257-2.133 0.069-4.864-0.562-8.191v0l-2.594-14.297 3.564-2.313-0.173-3.699-17.199 3.121 0.203 3.693 4.78 0.972 3.218 17.731c0.338 1.863 0.268 3.83-0.21 5.902-0.478 2.072-1.412 3.905-2.803 5.499v0zM236.598 14.426c1.638-0.374 3.32-1.093 5.047-2.158 1.726-1.065 3.093-2.491 4.099-4.28 1.008-1.783 1.243-3.854 0.704-6.213v0c-0.386-1.69-1.201-3.042-2.445-4.058-1.244-1.015-2.619-1.764-4.124-2.248-1.499-0.485-3.385-0.971-5.657-1.456v0c-1.462-0.323-2.597-0.593-3.406-0.812-0.803-0.22-1.491-0.511-2.066-0.872-0.581-0.36-0.932-0.803-1.052-1.329v0c-0.196-0.858-0.071-1.598 0.375-2.219 0.446-0.622 1.186-1.05 2.219-1.287v0c0.89-0.203 1.835-0.214 2.834-0.032 0.999 0.182 1.779 0.544 2.341 1.086v0l1.815 3.678 4.298-0.222c-0.128-0.86-0.365-2.481-0.711-4.864-0.341-2.391-0.538-3.703-0.592-3.937v0c-0.48-0.246-1.27-0.397-2.37-0.454-1.1-0.056-2.281-0.033-3.544 0.071-1.255 0.102-2.328 0.255-3.218 0.458v0c-2.184 0.499-4.068 1.35-5.654 2.554-1.584 1.21-2.716 2.672-3.398 4.387-0.682 1.715-0.801 3.544-0.357 5.487v0c0.396 1.735 1.188 3.107 2.376 4.114 1.189 1.014 2.489 1.75 3.899 2.207 1.411 0.457 3.186 0.893 5.325 1.307v0c1.382 0.272 2.464 0.518 3.246 0.736 0.78 0.212 1.454 0.499 2.022 0.861 0.57 0.369 0.92 0.84 1.051 1.411v0c0.105 0.461 0.028 0.944-0.233 1.449-0.261 0.504-0.661 0.954-1.2 1.351-0.537 0.403-1.15 0.683-1.839 0.84v0c-1.014 0.232-2.027 0.316-3.04 0.254-1.013-0.063-1.8-0.29-2.361-0.681v0l-2.024-4.236-4.379 0.272 1.21 9.068c0.779 0.478 2.141 0.704 4.083 0.678 1.936-0.025 4.178-0.329 6.726-0.911z" opacity="1" transform="matrix(1,0,0,1,0,0)" fill="#ffffff" class="undefined-text-0" data-fill-palette-color="primary" id="text-0"></path></svg></g></svg></g></svg></g></svg></g><g transform="matrix(1,0,0,1,155.42731468017195,0)"><svg viewBox="0 0 84.6653706396561 71.63960155809757" height="71.63960155809757" width="84.6653706396561"><g><svg xmlns="http://www.w3.org/2000/svg" xmlns:xlink="http://www.w3.org/1999/xlink" version="1.1" x="0" y="0" viewBox="0 13.42199993133545 100 84.61499786376953" enable-background="new 0 0 100 100" xml:space="preserve" height="71.63960155809757" width="84.6653706396561" class="icon-icon-0" data-fill-palette-color="accent" id="icon-0"><g fill="#ffffff" data-fill-palette-color="accent"><path d="M0 13.422v84.615h100V13.422H0zM92.308 90.346H7.692V28.807h84.615V90.346z" fill="#ffffff" data-fill-palette-color="accent"></path><rect x="42.002" y="66.065" width="26.488" height="7.775" fill="#ffffff" data-fill-palette-color="accent"></rect><polygon points="15.521,66.064 41.988,55.549 41.988,55.527 42.002,55.533 42.002,47.181 41.988,47.187 41.988,47.165    15.521,36.65 15.515,45.014 31.487,51.357 15.515,57.701  " fill="#ffffff" data-fill-palette-color="accent"></polygon></g></svg></g></svg></g><g></g></svg></g><defs></defs></svg><rect width="395.52" height="148.24402849448524" fill="none" stroke="none" visibility="hidden"></rect></g></svg></g></svg>